<svg xmlns="http://www.w3.org/2000/svg" viewBox="0 0 247.2 201.33"><defs><style>.cls-1,.cls-2{stroke:#000;stroke-miterlimit:10;}.cls-1{stroke-width:8px;}.cls-2{stroke-width:4px;}</style></defs><g id="图层_2" data-name="图层 2"><g id="图层_1-2" data-name="图层 1"><g id="图层_2-2" data-name="图层 2"><g id="图层_1-2-2" data-name="图层 1-2"><g id="图层_2-2-2" data-name="图层 2-2"><g id="图层_3" data-name="图层 3"><path class="cls-1" d="M217.1,197.1c-7.4,0-16.5,1.2-21.9-1.9-7.8-4.3-9.6-10.5-9.6-15V121.5c0-11.3-15-15.5-20.7-5.7l-.7,1.2c-4.3,7.4-10.5,5.83-19.4,5.83-8.6,0-16,1.37-19.7-6h0c-5.5-10.2-20.9-6.2-20.9,5.3v58c0,4.5-1.6,10.7-9.6,15-5.4,2.9-9.3,1.9-16.7,1.9s-16.5,1.2-21.9-1.9c-7.8-4.3-9.6-10.5-9.6-15V32.8c0-9.6,2.9-17,8.6-21.8,5.4-4.7,12.3-7,20.2-7C85.5,4,93.1,5.6,98.6,8.9s11.5,10.3,18.1,21.6L135,62.7a11.15,11.15,0,0,0,19.3.1l18.6-32.1c6.5-11.3,12.3-18.4,18.1-21.6,5.6-3.3,13.3-4.9,23.4-4.9,8,0,14.6,2.3,20.2,7,5.8,4.9,8.6,12.1,8.6,21.8V180.4c0,4.5-1.6,10.7-9.6,15C228.4,198.1,224.5,197.1,217.1,197.1ZM190.3,59.4a2.6,2.6,0,0,1,1.2.2,4.48,4.48,0,0,1,3.3,4.3V180.2c0,2.2.6,4.7,4.7,7s9-6,15-6c5.8,0,10.9,8.1,15,6,4.1-2.3,4.9-5.1,4.9-7V32.8c0-6.8-1.8-11.7-5.4-14.8-3.7-3.3-8.4-4.9-14.2-4.9-8.4,0-14.8,1.2-18.9,3.6-2.9,1.6-7.8,6.1-14.6,18.4L149.4,91a4.54,4.54,0,0,1-3.9,2.3h0a4.54,4.54,0,0,1-3.9-2.3L109.4,35c-6.8-12.3-11.7-16.8-14.6-18.4C90.7,14.3,84.3,13,75.9,13c-5.8,0-10.5,1.6-14.2,4.9-3.6,3.1-5.4,8-5.4,14.8V180.1c0,2.2.6,4.7,4.7,7s9-6,15-6c5.8,0,10.9,8.1,15,6,4.1-2.3,4.7-5.1,4.7-7V60.9a4.53,4.53,0,0,1,3.5-4.3,4.42,4.42,0,0,1,5.1,2.2l17,34.5c11,17.3,18.93,17.3,24,17.3,5.6,0,15.41-2.2,24.35-17.3l17.2-31.6A3.32,3.32,0,0,1,190.3,59.4Z"/><path class="cls-2" d="M41.6,132.7H29.2a4.9,4.9,0,1,0,0,9.8H41.7a4.92,4.92,0,0,0,4.9-4.9A4.74,4.74,0,0,0,42,132.7H41.6Z"/><path class="cls-2" d="M19.1,90.3H15a4.9,4.9,0,0,0,0,9.8h4.1A4.92,4.92,0,0,0,24,95.2C24.2,92.7,21.8,90.3,19.1,90.3Z"/><path class="cls-2" d="M28,29.9A4.92,4.92,0,0,0,23.1,25H20V21.9a4.9,4.9,0,0,0-9.8,0v3.2H7.06a4.9,4.9,0,0,0,0,9.8h3.1v3.3a4.9,4.9,0,0,0,9.8,0V35.1h3.1A5,5,0,0,0,28,30V29.9Z"/><path class="cls-2" d="M106.3,156.4a4.9,4.9,0,1,0,0-9.8H73a4.9,4.9,0,0,0,0,9.8Z"/><path class="cls-2" d="M35.2,80.3a4.92,4.92,0,0,0,4.9,4.9H78.5a4.9,4.9,0,1,0,0-9.8H40.1A4.74,4.74,0,0,0,35.2,80v.34Z"/><path class="cls-2" d="M70,110.6H6.9a4.9,4.9,0,1,0,0,9.8H70a4.92,4.92,0,0,0,4.9-4.9,4.84,4.84,0,0,0-4.78-4.9H70Z"/></g></g></g></g></g></g></svg>